<svg xmlns="http://www.w3.org/2000/svg" xmlns:xlink="http://www.w3.org/1999/xlink" viewBox="0,0,256,256" width="500px" height="500px"><g transform="translate(40.96,40.96) scale(0.68,0.68)"><g fill="#0075d1" fill-rule="nonzero" stroke="none" stroke-width="1" stroke-linecap="butt" stroke-linejoin="miter" stroke-miterlimit="10" stroke-dasharray="" stroke-dashoffset="0" font-family="none" font-weight="none" font-size="none" text-anchor="none" style="mix-blend-mode: normal"><g transform="translate(0,-40.53333) scale(10.66667,10.66667)"><path d="M2.966,8.331l15.056,-2.928l-7.37,-5.403v2.477l-8.405,3.422l-2.247,2.972v6.843l2.966,0.856z"></path><path d="M8.944,20.938l9.303,3.062l5.753,-4.908v-14.68l-5.977,0.991v12.968l-15.057,-1.801l5.978,7.43z"></path></g></g><g fill="#006fff" fill-rule="nonzero" stroke="none" stroke-width="1" stroke-linecap="butt" stroke-linejoin="miter" stroke-miterlimit="10" stroke-dasharray="" stroke-dashoffset="0" font-family="none" font-weight="none" font-size="none" text-anchor="none" style="mix-blend-mode: normal"><g><path d="M21.29,261.63667l-2.39,-6.62h-9.17l-2.26,6.62h-5.85l10.75,-30.08h4.31l10.75,30.08zM13.4,243.71667l-2.18,6.61h6.4l-2.22,-6.66l-0.89,-4.69h-0.22zM28.29,261.63667v-4.7l8.4,-10.11l2.18,-1.83h-10.58v-4.7h16.72v4.7l-8.32,10.28l-2.13,1.66h10.45v4.7zM48.72,240.29667h5.55v12.12c0,1.73333 0.20667,2.98667 0.62,3.76c0.41333,0.76667 1.21667,1.15 2.41,1.15v0c1.05333,0 1.92667,-0.31333 2.62,-0.94c0.7,-0.62667 1.22,-1.39667 1.56,-2.31v0v-13.78h5.55v14.85c0,1.16667 0.05667,2.31333 0.17,3.44c0.11333,1.12 0.28333,2.13667 0.51,3.05v0h-4.18l-0.98,-3.16h-0.17c-0.65333,1.08 -1.56333,1.97667 -2.73,2.69c-1.16667,0.70667 -2.54667,1.06 -4.14,1.06v0c-1.08,0 -2.04667,-0.14 -2.9,-0.42c-0.85333,-0.28667 -1.56667,-0.75667 -2.14,-1.41c-0.56667,-0.65333 -1,-1.53667 -1.3,-2.65c-0.3,-1.10667 -0.45,-2.5 -0.45,-4.18v0zM84.39,240.29667l-0.72,5.21c-0.88,-0.31333 -1.67667,-0.47 -2.39,-0.47v0c-0.99333,0 -1.82667,0.26333 -2.5,0.79c-0.66667,0.52667 -1.11333,1.20333 -1.34,2.03v0v13.78h-5.55v-21.34h4.31l0.64,2.82h0.17c0.48667,-1.05333 1.14,-1.86333 1.96,-2.43c0.82667,-0.57333 1.79667,-0.86 2.91,-0.86v0c0.74,0 1.57667,0.15667 2.51,0.47zM102.1,256.17667l1.83,3.62c-0.85333,0.68667 -2.01,1.26333 -3.47,1.73c-1.46667,0.46667 -3.02333,0.7 -4.67,0.7v0c-3.44667,0 -5.96667,-1 -7.56,-3c-1.59333,-2.00667 -2.39,-4.76 -2.39,-8.26v0c0,-3.75333 0.89667,-6.57 2.69,-8.45c1.79333,-1.87333 4.31,-2.81 7.55,-2.81v0c1.08667,0 2.14,0.14 3.16,0.42c1.02667,0.28667 1.93667,0.75667 2.73,1.41c0.8,0.65333 1.44,1.53667 1.92,2.65c0.48667,1.10667 0.73,2.48333 0.73,4.13v0c0,0.6 -0.03667,1.24 -0.11,1.92c-0.07333,0.68667 -0.18,1.4 -0.32,2.14v0h-12.8c0.08667,1.79333 0.55,3.14333 1.39,4.05c0.84,0.91333 2.19667,1.37 4.07,1.37v0c1.16667,0 2.21333,-0.18 3.14,-0.54c0.92,-0.35333 1.62333,-0.71333 2.11,-1.08zM96,244.13667v0c-1.45333,0 -2.52667,0.43333 -3.22,1.3c-0.7,0.87333 -1.12,2.03333 -1.26,3.48v0h7.93c0.12,-1.53333 -0.11333,-2.71333 -0.7,-3.54c-0.58,-0.82667 -1.49667,-1.24 -2.75,-1.24zM119.47,261.67667v-29.91c0.59333,-0.08667 1.26667,-0.15667 2.02,-0.21c0.75333,-0.06 1.53,-0.10333 2.33,-0.13c0.79333,-0.02667 1.56667,-0.05 2.32,-0.07c0.75333,-0.01333 1.43,-0.02 2.03,-0.02v0c2.64667,0 4.90667,0.37 6.78,1.11c1.88,0.74 3.40333,1.78 4.57,3.12c1.16667,1.33333 2.02,2.92667 2.56,4.78c0.54,1.84667 0.81,3.88 0.81,6.1v0c0,2.02 -0.25667,3.96667 -0.77,5.84c-0.51333,1.88 -1.36667,3.54333 -2.56,4.99c-1.19333,1.45333 -2.76333,2.62 -4.71,3.5c-1.95333,0.88667 -4.36667,1.33 -7.24,1.33v0c-0.45333,0 -1.05667,-0.01667 -1.81,-0.05c-0.75333,-0.02667 -1.53667,-0.06 -2.35,-0.1c-0.80667,-0.04667 -1.58,-0.09 -2.32,-0.13c-0.74,-0.04667 -1.29333,-0.09667 -1.66,-0.15zM128.64,236.54667v0c-0.62667,0 -1.26,0.01333 -1.9,0.04c-0.64,0.02667 -1.11667,0.07 -1.43,0.13v0v20.01c0.11333,0.02667 0.30667,0.04667 0.58,0.06c0.26667,0.02 0.55667,0.03667 0.87,0.05c0.31333,0.01333 0.61333,0.02667 0.9,0.04c0.28,0.01333 0.49333,0.02 0.64,0.02v0c1.64667,0 3.01667,-0.29 4.11,-0.87c1.1,-0.58667 1.97,-1.36333 2.61,-2.33c0.64,-0.96667 1.08667,-2.08333 1.34,-3.35c0.26,-1.26667 0.39,-2.56667 0.39,-3.9v0c0,-1.16667 -0.11667,-2.34 -0.35,-3.52c-0.22667,-1.18 -0.64333,-2.24 -1.25,-3.18c-0.61333,-0.94 -1.44667,-1.71 -2.5,-2.31c-1.05333,-0.59333 -2.39,-0.89 -4.01,-0.89zM162.17,256.17667l1.84,3.62c-0.85333,0.68667 -2.01333,1.26333 -3.48,1.73c-1.46667,0.46667 -3.02333,0.7 -4.67,0.7v0c-3.44,0 -5.95667,-1 -7.55,-3c-1.59333,-2.00667 -2.39,-4.76 -2.39,-8.26v0c0,-3.75333 0.89667,-6.57 2.69,-8.45c1.78667,-1.87333 4.30333,-2.81 7.55,-2.81v0c1.08,0 2.13333,0.14 3.16,0.42c1.02,0.28667 1.93,0.75667 2.73,1.41c0.79333,0.65333 1.43333,1.53667 1.92,2.65c0.48,1.10667 0.72,2.48333 0.72,4.13v0c0,0.6 -0.03333,1.24 -0.1,1.92c-0.07333,0.68667 -0.18,1.4 -0.32,2.14v0h-12.8c0.08,1.79333 0.54,3.14333 1.38,4.05c0.84,0.91333 2.2,1.37 4.08,1.37v0c1.16667,0 2.21,-0.18 3.13,-0.54c0.92667,-0.35333 1.63,-0.71333 2.11,-1.08zM156.07,244.13667v0c-1.44667,0 -2.52,0.43333 -3.22,1.3c-0.69333,0.87333 -1.11333,2.03333 -1.26,3.48v0h7.94c0.11333,-1.53333 -0.12,-2.71333 -0.7,-3.54c-0.58667,-0.82667 -1.50667,-1.24 -2.76,-1.24zM171.43,240.29667l3.97,11.18l0.73,3.29h0.21l0.6,-3.37l3.62,-11.1h5.98l-8.92,21.55h-3.37l-9.26,-21.55zM187.56,246.69667v0c0,-4.97333 1.09667,-8.80667 3.29,-11.5c2.18667,-2.68667 5.31333,-4.03 9.38,-4.03v0c2.13333,0 3.99667,0.37 5.59,1.11c1.59333,0.74 2.91667,1.79333 3.97,3.16c1.05333,1.36667 1.83667,3.00333 2.35,4.91c0.51333,1.9 0.77,4.01667 0.77,6.35v0c0,4.98 -1.10333,8.81333 -3.31,11.5c-2.20667,2.68667 -5.33,4.03 -9.37,4.03v0c-2.16,0 -4.03667,-0.37 -5.63,-1.11c-1.59333,-0.73333 -2.91,-1.78333 -3.95,-3.15c-1.03333,-1.36667 -1.80667,-3.00333 -2.32,-4.91c-0.51333,-1.90667 -0.77,-4.02667 -0.77,-6.36zM193.71,246.69667v0c0,1.50667 0.12667,2.89333 0.38,4.16c0.25333,1.26667 0.64333,2.35667 1.17,3.27c0.52667,0.90667 1.20333,1.61667 2.03,2.13c0.82667,0.51333 1.80667,0.77 2.94,0.77v0c2.08,0 3.68667,-0.81 4.82,-2.43c1.14,-1.62667 1.71,-4.26 1.71,-7.9v0c0,-1.44667 -0.12,-2.79667 -0.36,-4.05c-0.24,-1.25333 -0.61667,-2.35 -1.13,-3.29c-0.51333,-0.93333 -1.18333,-1.66333 -2.01,-2.19c-0.82,-0.52667 -1.83,-0.79 -3.03,-0.79v0c-2.07333,0 -3.68,0.83 -4.82,2.49c-1.13333,1.66667 -1.7,4.27667 -1.7,7.83zM216.96,270.16667v-29.87h4.05l0.64,2.56h0.17c0.74,-1.08 1.61667,-1.87667 2.63,-2.39c1.00667,-0.50667 2.23667,-0.76 3.69,-0.76v0c2.67333,0 4.67667,0.84333 6.01,2.53c1.34,1.69333 2.01,4.42 2.01,8.18v0c0,1.82 -0.21333,3.46 -0.64,4.92c-0.42667,1.46667 -1.06,2.71333 -1.9,3.74c-0.84,1.02 -1.86333,1.8 -3.07,2.34c-1.21333,0.54 -2.6,0.81 -4.16,0.81v0c-0.88,0 -1.60667,-0.06333 -2.18,-0.19c-0.56667,-0.12667 -1.13333,-0.33333 -1.7,-0.62v0v8.75zM226.47,244.39667v0c-1.08,0 -1.92667,0.27 -2.54,0.81c-0.60667,0.54 -1.08,1.35 -1.42,2.43v0v8.88c0.39333,0.31333 0.82667,0.56 1.3,0.74c0.46667,0.18667 1.08333,0.28 1.85,0.28v0c1.59333,0 2.79,-0.56 3.59,-1.68c0.79333,-1.12667 1.19,-2.98333 1.19,-5.57v0c0,-1.88 -0.31333,-3.33 -0.94,-4.35c-0.62667,-1.02667 -1.63667,-1.54 -3.03,-1.54zM248.83,255.74667v0c0,-0.56667 -0.24,-1.02333 -0.72,-1.37c-0.48667,-0.34 -1.08667,-0.65333 -1.8,-0.94c-0.70667,-0.28 -1.48667,-0.57 -2.34,-0.87c-0.85333,-0.3 -1.63667,-0.71333 -2.35,-1.24c-0.71333,-0.52667 -1.31,-1.19333 -1.79,-2c-0.48667,-0.81333 -0.73,-1.86 -0.73,-3.14v0c0,-2.10667 0.62667,-3.71333 1.88,-4.82c1.25333,-1.10667 3.06,-1.66 5.42,-1.66v0c1.62,0 3.08333,0.17 4.39,0.51c1.31333,0.34 2.34,0.72333 3.08,1.15v0l-1.24,4.01c-0.65333,-0.25333 -1.48,-0.52333 -2.48,-0.81c-0.99333,-0.28667 -2.00333,-0.43 -3.03,-0.43v0c-1.64667,0 -2.47,0.64 -2.47,1.92v0c0,0.51333 0.24,0.92667 0.72,1.24c0.48667,0.31333 1.08667,0.60667 1.8,0.88c0.70667,0.26667 1.48667,0.55667 2.34,0.87c0.85333,0.31333 1.63667,0.72 2.35,1.22c0.71333,0.49333 1.31,1.14 1.79,1.94c0.48667,0.79333 0.73,1.81667 0.73,3.07v0c0,2.16 -0.69,3.86 -2.07,5.1c-1.38,1.23333 -3.45,1.85 -6.21,1.85v0c-1.50667,0 -2.92333,-0.19 -4.25,-0.57c-1.32,-0.38667 -2.39333,-0.83667 -3.22,-1.35v0l1.54,-4.13c0.65333,0.36667 1.52,0.72667 2.6,1.08c1.08,0.36 2.19,0.54 3.33,0.54v0c0.82667,0 1.48667,-0.15667 1.98,-0.47c0.5,-0.31333 0.75,-0.84 0.75,-1.58z"></path></g></g></g></svg>