<svg xmlns="http://www.w3.org/2000/svg" xmlns:xlink="http://www.w3.org/1999/xlink" viewBox="0,0,256,256" width="500px" height="500px"><g transform="translate(40.96,40.96) scale(0.68,0.68)"><g fill="#008fff" fill-rule="nonzero" stroke="none" stroke-width="1" stroke-linecap="butt" stroke-linejoin="miter" stroke-miterlimit="10" stroke-dasharray="" stroke-dashoffset="0" font-family="none" font-weight="none" font-size="none" text-anchor="none" style="mix-blend-mode: normal"><g transform="scale(5.12,5.12)"><path d="M25,2c-12.682,0 -23,10.317 -23,23c0,0.553 0.448,1 1,1h7c0.552,0 1,-0.448 1,-1c0,-7.732 6.268,-14 14,-14c7.732,0 14,6.268 14,14c0,7.732 -6.268,14 -14,14v-7c0,-0.552 -0.448,-1 -1,-1h-7c-0.552,0 -1,0.448 -1,1v7h-5v-4c0,-0.552 -0.448,-1 -1,-1h-4c-0.552,0 -1,0.448 -1,1v4c0,0.552 0.448,1 1,1h4v5c0,0.552 0.448,1 1,1h5c0.552,0 1,-0.448 1,-1v-5h7v7c0,0.553 0.448,1 1,1c12.682,0 23,-10.317 23,-23c0,-12.683 -10.318,-23 -23,-23z"></path></g></g><g fill="#0095ff" fill-rule="nonzero" stroke="none" stroke-width="1" stroke-linecap="butt" stroke-linejoin="miter" stroke-miterlimit="10" stroke-dasharray="" stroke-dashoffset="0" font-family="none" font-weight="none" font-size="none" text-anchor="none" style="mix-blend-mode: normal"><g><path d="M45.315,282.684v-21.53c0.43333,-0.06667 0.92,-0.12 1.46,-0.16c0.54667,-0.04 1.10667,-0.07 1.68,-0.09c0.57333,-0.02 1.13,-0.03667 1.67,-0.05c0.54,-0.00667 1.02667,-0.01 1.46,-0.01v0c1.90667,0 3.53333,0.26667 4.88,0.8c1.35333,0.53333 2.45,1.28 3.29,2.24c0.84,0.96 1.45333,2.10667 1.84,3.44c0.39333,1.33333 0.59,2.79667 0.59,4.39v0c0,1.45333 -0.18333,2.85667 -0.55,4.21c-0.37333,1.35333 -0.99,2.55333 -1.85,3.6c-0.86,1.04 -1.99,1.88 -3.39,2.52c-1.40667,0.63333 -3.14333,0.95 -5.21,0.95v0c-0.32667,0 -0.76,-0.01 -1.3,-0.03c-0.54667,-0.02 -1.11,-0.04667 -1.69,-0.08c-0.58667,-0.03333 -1.14667,-0.06333 -1.68,-0.09c-0.53333,-0.03333 -0.93333,-0.07 -1.2,-0.11zM51.925,264.594v0c-0.45333,0 -0.91,0.01 -1.37,0.03c-0.46,0.02 -0.80333,0.05 -1.03,0.09v0v14.41c0.08,0.02 0.22,0.03333 0.42,0.04c0.19333,0.01333 0.40333,0.02333 0.63,0.03c0.22,0.01333 0.43333,0.02333 0.64,0.03c0.20667,0.01333 0.36,0.02 0.46,0.02v0c1.18667,0 2.17667,-0.21 2.97,-0.63c0.78667,-0.42 1.41,-0.97667 1.87,-1.67c0.46,-0.7 0.78333,-1.50667 0.97,-2.42c0.18,-0.90667 0.27,-1.84333 0.27,-2.81v0c0,-0.84 -0.08,-1.68333 -0.24,-2.53c-0.16667,-0.85333 -0.47,-1.61667 -0.91,-2.29c-0.44,-0.67333 -1.03667,-1.22667 -1.79,-1.66c-0.76,-0.42667 -1.72333,-0.64 -2.89,-0.64zM65.435,282.654v-15.36h4v15.36zM64.855,262.964v0c0,-0.59333 0.22,-1.1 0.66,-1.52c0.44,-0.42 1.05,-0.63 1.83,-0.63v0c0.78,0 1.41,0.21 1.89,0.63c0.48,0.42 0.72,0.92667 0.72,1.52v0c0,0.59333 -0.24,1.09 -0.72,1.49c-0.48,0.4 -1.11,0.6 -1.89,0.6v0c-0.78,0 -1.39,-0.2 -1.83,-0.6c-0.44,-0.4 -0.66,-0.89667 -0.66,-1.49zM86.365,267.844v14.81c0,2.23333 -0.60667,3.87667 -1.82,4.93c-1.20667,1.05333 -2.89667,1.58 -5.07,1.58v0c-1.47333,0 -2.63333,-0.1 -3.48,-0.3c-0.85333,-0.20667 -1.49333,-0.42333 -1.92,-0.65v0l0.83,-3.16c0.46667,0.18 1.01333,0.36333 1.64,0.55c0.62667,0.18667 1.4,0.28 2.32,0.28v0c1.39333,0 2.34,-0.30333 2.84,-0.91c0.5,-0.60667 0.75,-1.45333 0.75,-2.54v0v-0.98h-0.12c-0.71333,0.96667 -1.98333,1.45 -3.81,1.45v0c-1.98667,0 -3.46667,-0.61667 -4.44,-1.85c-0.97333,-1.22667 -1.46,-3.15 -1.46,-5.77v0c0,-2.74667 0.65667,-4.82667 1.97,-6.24c1.31333,-1.41333 3.21667,-2.12 5.71,-2.12v0c1.31333,0 2.48667,0.09333 3.52,0.28c1.03333,0.18 1.88,0.39333 2.54,0.64zM79.605,279.704v0c0.77333,0 1.37,-0.17333 1.79,-0.52c0.42,-0.34667 0.74333,-0.87 0.97,-1.57v0v-6.91c-0.63333,-0.26667 -1.42,-0.4 -2.36,-0.4v0c-1.02667,0 -1.82667,0.38333 -2.4,1.15c-0.57333,0.76667 -0.86,1.99 -0.86,3.67v0c0,1.5 0.24667,2.63667 0.74,3.41c0.48667,0.78 1.19333,1.17 2.12,1.17zM90.165,282.654v-15.36h4v15.36zM89.585,262.964v0c0,-0.59333 0.22,-1.1 0.66,-1.52c0.44,-0.42 1.05,-0.63 1.83,-0.63v0c0.78,0 1.41,0.21 1.89,0.63c0.48,0.42 0.72,0.92667 0.72,1.52v0c0,0.59333 -0.24,1.09 -0.72,1.49c-0.48,0.4 -1.11,0.6 -1.89,0.6v0c-0.78,0 -1.39,-0.2 -1.83,-0.6c-0.44,-0.4 -0.66,-0.89667 -0.66,-1.49zM96.495,270.674v-3.38h2.12v-2.89l4,-1.13v4.02h3.74v3.38h-3.74v5.9c0,1.06 0.10667,1.82333 0.32,2.29c0.21333,0.46 0.61667,0.69 1.21,0.69v0c0.41333,0 0.76667,-0.04333 1.06,-0.13c0.3,-0.08 0.63333,-0.2 1,-0.36v0l0.71,3.07c-0.55333,0.26667 -1.2,0.49 -1.94,0.67c-0.73333,0.18667 -1.48,0.28 -2.24,0.28v0c-1.41333,0 -2.45333,-0.36333 -3.12,-1.09c-0.66667,-0.72667 -1,-1.92 -1,-3.58v0v-7.74zM109.675,271.164l-0.95,-2.98c0.82,-0.36667 1.79333,-0.65667 2.92,-0.87c1.12667,-0.22 2.30333,-0.33 3.53,-0.33v0c1.06667,0 1.95667,0.13 2.67,0.39c0.72,0.25333 1.29,0.61667 1.71,1.09c0.42,0.46667 0.71667,1.03 0.89,1.69c0.17333,0.65333 0.26,1.39 0.26,2.21v0c0,0.9 -0.03,1.80667 -0.09,2.72c-0.06,0.90667 -0.09667,1.80333 -0.11,2.69c-0.00667,0.88 0.02,1.73333 0.08,2.56c0.06,0.82667 0.21333,1.61 0.46,2.35v0h-3.26l-0.64,-2.12h-0.16c-0.40667,0.63333 -0.97333,1.18 -1.7,1.64c-0.72667,0.46667 -1.66333,0.7 -2.81,0.7v0c-0.72,0 -1.36667,-0.11 -1.94,-0.33c-0.57333,-0.21333 -1.06333,-0.52 -1.47,-0.92c-0.41333,-0.4 -0.73333,-0.87 -0.96,-1.41c-0.22,-0.54667 -0.33,-1.15667 -0.33,-1.83v0c0,-0.94 0.21,-1.73333 0.63,-2.38c0.42,-0.64667 1.02333,-1.17 1.81,-1.57c0.78667,-0.4 1.73,-0.67667 2.83,-0.83c1.09333,-0.15333 2.31667,-0.19667 3.67,-0.13v0c0.14,-1.14667 0.05667,-1.97333 -0.25,-2.48c-0.30667,-0.5 -0.99333,-0.75 -2.06,-0.75v0c-0.8,0 -1.64333,0.08333 -2.53,0.25c-0.89333,0.16 -1.62667,0.37333 -2.2,0.64zM113.795,279.614v0c0.8,0 1.43333,-0.18 1.9,-0.54c0.47333,-0.36 0.82333,-0.74333 1.05,-1.15v0v-2c-0.64,-0.06 -1.25,-0.07 -1.83,-0.03c-0.58667,0.04 -1.10333,0.13333 -1.55,0.28c-0.45333,0.14 -0.81333,0.34333 -1.08,0.61c-0.26667,0.26667 -0.4,0.60667 -0.4,1.02v0c0,0.57333 0.17,1.01667 0.51,1.33c0.34,0.32 0.80667,0.48 1.4,0.48zM128.175,261.154v16.34c0,0.71333 0.09,1.23667 0.27,1.57c0.18667,0.32667 0.48333,0.49 0.89,0.49v0c0.24667,0 0.48667,-0.02 0.72,-0.06c0.24,-0.04667 0.53333,-0.14 0.88,-0.28v0l0.43,3.13c-0.32667,0.16667 -0.83,0.33 -1.51,0.49c-0.67333,0.16667 -1.36667,0.25 -2.08,0.25v0c-1.17333,0 -2.06667,-0.27 -2.68,-0.81c-0.61333,-0.54667 -0.92,-1.44333 -0.92,-2.69v0v-18.43zM132.505,271.904v0c0,-3.58667 0.78667,-6.34667 2.36,-8.28c1.58,-1.93333 3.83333,-2.9 6.76,-2.9v0c1.53333,0 2.87333,0.26333 4.02,0.79c1.15333,0.53333 2.10667,1.29333 2.86,2.28c0.76,0.98 1.32333,2.15667 1.69,3.53c0.36667,1.37333 0.55,2.9 0.55,4.58v0c0,3.58 -0.79333,6.34 -2.38,8.28c-1.58667,1.93333 -3.83333,2.9 -6.74,2.9v0c-1.55333,0 -2.90333,-0.26667 -4.05,-0.8c-1.14667,-0.53333 -2.09667,-1.29 -2.85,-2.27c-0.74667,-0.98667 -1.30333,-2.16333 -1.67,-3.53c-0.36667,-1.37333 -0.55,-2.9 -0.55,-4.58zM136.925,271.904v0c0,1.08667 0.09333,2.08333 0.28,2.99c0.18,0.91333 0.46,1.69667 0.84,2.35c0.38,0.66 0.86667,1.17333 1.46,1.54c0.59333,0.36667 1.3,0.55 2.12,0.55v0c1.49333,0 2.65,-0.58333 3.47,-1.75c0.82,-1.16667 1.23,-3.06 1.23,-5.68v0c0,-1.04667 -0.08667,-2.02 -0.26,-2.92c-0.17333,-0.9 -0.44333,-1.69 -0.81,-2.37c-0.37333,-0.67333 -0.85667,-1.2 -1.45,-1.58c-0.59333,-0.38 -1.32,-0.57 -2.18,-0.57v0c-1.49333,0 -2.65,0.6 -3.47,1.8c-0.82,1.2 -1.23,3.08 -1.23,5.64zM163.625,278.664l0.92,3.04c-0.61333,0.44667 -1.35667,0.79 -2.23,1.03c-0.87333,0.23333 -1.77,0.35 -2.69,0.35v0c-1.22667,0 -2.26667,-0.19333 -3.12,-0.58c-0.84667,-0.39333 -1.53667,-0.94333 -2.07,-1.65c-0.53333,-0.70667 -0.91667,-1.56 -1.15,-2.56c-0.23333,-1.00667 -0.35,-2.11333 -0.35,-3.32v0c0,-2.6 0.58333,-4.60333 1.75,-6.01c1.16667,-1.4 2.86667,-2.1 5.1,-2.1v0c1.12667,0 2.03,0.09333 2.71,0.28c0.68667,0.18 1.30667,0.41333 1.86,0.7v0l-0.95,3.26c-0.47333,-0.22667 -0.94,-0.4 -1.4,-0.52c-0.46,-0.12667 -0.98667,-0.19 -1.58,-0.19v0c-1.10667,0 -1.94667,0.36333 -2.52,1.09c-0.57333,0.72667 -0.86,1.89 -0.86,3.49v0c0,0.65333 0.07333,1.25667 0.22,1.81c0.14,0.55333 0.35333,1.03667 0.64,1.45c0.28667,0.40667 0.66,0.72667 1.12,0.96c0.46,0.24 1,0.36 1.62,0.36v0c0.67333,0 1.24667,-0.08667 1.72,-0.26c0.46667,-0.17333 0.88667,-0.38333 1.26,-0.63zM177.415,278.724l1.32,2.61c-0.61333,0.49333 -1.44667,0.90667 -2.5,1.24c-1.06,0.34 -2.18333,0.51 -3.37,0.51v0c-2.47333,0 -4.28333,-0.72333 -5.43,-2.17c-1.15333,-1.44 -1.73,-3.42 -1.73,-5.94v0c0,-2.70667 0.64667,-4.73333 1.94,-6.08c1.29333,-1.35333 3.10667,-2.03 5.44,-2.03v0c0.78,0 1.53667,0.10333 2.27,0.31c0.74,0.2 1.39667,0.53667 1.97,1.01c0.57333,0.47333 1.03333,1.11 1.38,1.91c0.34667,0.79333 0.52,1.78667 0.52,2.98v0c0,0.42667 -0.02667,0.88667 -0.08,1.38c-0.04667,0.49333 -0.12333,1.00333 -0.23,1.53v0h-9.21c0.06,1.29333 0.39333,2.26667 1,2.92c0.6,0.66 1.57667,0.99 2.93,0.99v0c0.84,0 1.59333,-0.13 2.26,-0.39c0.66667,-0.25333 1.17333,-0.51333 1.52,-0.78zM173.025,270.054v0c-1.04667,0 -1.82,0.31333 -2.32,0.94c-0.50667,0.62667 -0.81,1.46333 -0.91,2.51v0h5.71c0.08667,-1.10667 -0.08,-1.95667 -0.5,-2.55c-0.42,-0.6 -1.08,-0.9 -1.98,-0.9zM182.915,271.164l-0.95,-2.98c0.81333,-0.36667 1.78333,-0.65667 2.91,-0.87c1.12667,-0.22 2.30667,-0.33 3.54,-0.33v0c1.06,0 1.95,0.13 2.67,0.39c0.71333,0.25333 1.28,0.61667 1.7,1.09c0.42,0.46667 0.72,1.03 0.9,1.69c0.17333,0.65333 0.26,1.39 0.26,2.21v0c0,0.9 -0.03333,1.80667 -0.1,2.72c-0.06,0.90667 -0.09333,1.80333 -0.1,2.69c-0.01333,0.88 0.01,1.73333 0.07,2.56c0.06667,0.82667 0.22,1.61 0.46,2.35v0h-3.25l-0.65,-2.12h-0.15c-0.40667,0.63333 -0.97667,1.18 -1.71,1.64c-0.72667,0.46667 -1.66333,0.7 -2.81,0.7v0c-0.71333,0 -1.35667,-0.11 -1.93,-0.33c-0.57333,-0.21333 -1.06667,-0.52 -1.48,-0.92c-0.40667,-0.4 -0.72333,-0.87 -0.95,-1.41c-0.22667,-0.54667 -0.34,-1.15667 -0.34,-1.83v0c0,-0.94 0.21,-1.73333 0.63,-2.38c0.42,-0.64667 1.02667,-1.17 1.82,-1.57c0.78667,-0.4 1.72667,-0.67667 2.82,-0.83c1.1,-0.15333 2.32333,-0.19667 3.67,-0.13v0c0.14667,-1.14667 0.06667,-1.97333 -0.24,-2.48c-0.30667,-0.5 -0.99333,-0.75 -2.06,-0.75v0c-0.8,0 -1.64667,0.08333 -2.54,0.25c-0.88667,0.16 -1.61667,0.37333 -2.19,0.64zM187.025,279.614v0c0.8,0 1.43667,-0.18 1.91,-0.54c0.47333,-0.36 0.82,-0.74333 1.04,-1.15v0v-2c-0.63333,-0.06 -1.24,-0.07 -1.82,-0.03c-0.58667,0.04 -1.10667,0.13333 -1.56,0.28c-0.44667,0.14 -0.80333,0.34333 -1.07,0.61c-0.26667,0.26667 -0.4,0.60667 -0.4,1.02v0c0,0.57333 0.17,1.01667 0.51,1.33c0.33333,0.32 0.79667,0.48 1.39,0.48zM210.685,282.654h-3.99v-8.72c0,-1.25333 -0.18,-2.15667 -0.54,-2.71c-0.36,-0.55333 -0.97,-0.83 -1.83,-0.83v0c-0.76,0 -1.4,0.22 -1.92,0.66c-0.52,0.44 -0.89333,0.99 -1.12,1.65v0v9.95h-3.99v-15.36h3.16l0.46,2.03h0.12c0.47333,-0.66 1.1,-1.23333 1.88,-1.72c0.77333,-0.49333 1.77667,-0.74 3.01,-0.74v0c0.75333,0 1.42667,0.10333 2.02,0.31c0.6,0.2 1.10333,0.53667 1.51,1.01c0.40667,0.47333 0.71333,1.11333 0.92,1.92c0.20667,0.80667 0.31,1.80667 0.31,3v0z"></path></g></g></g></svg>