<svg xmlns="http://www.w3.org/2000/svg" xmlns:xlink="http://www.w3.org/1999/xlink" viewBox="0,0,256,256" width="500px" height="500px"><g fill="none" fill-rule="nonzero" stroke="none" stroke-width="1" stroke-linecap="butt" stroke-linejoin="miter" stroke-miterlimit="10" stroke-dasharray="" stroke-dashoffset="0" font-family="none" font-weight="none" font-size="none" text-anchor="none" style="mix-blend-mode: normal"><g transform="translate(-45.33333,0.00295) scale(5.33333,5.33333)"><path d="M23.65,24.898c-0.998,-1.609 -1.722,-2.943 -2.725,-5.455c-1.696,-4.243 10.315,-8.077 5.445,-15.444c2.111,5.089 -7.577,8.235 -8.477,12.473c-0.823,3.898 5.752,8.426 5.757,8.426z" fill="#f44336"></path><path d="M23.878,17.27c-0.192,2.516 2.229,3.857 2.299,5.695c0.056,1.496 -1.447,2.743 -1.447,2.743c0,0 2.728,-0.536 3.579,-2.818c0.945,-2.534 -1.834,-4.269 -1.548,-6.298c0.267,-1.938 6.031,-5.543 6.031,-5.543c0,0 -8.481,0.562 -8.914,6.221z" fill="#f44336"></path><g fill="#1565c0"><path d="M32.084,25.055c1.754,-0.394 3.233,0.723 3.233,2.01c0,2.901 -4.021,5.643 -4.021,5.643c0,0 6.225,-0.742 6.225,-5.505c0,-3.15 -3.057,-3.937 -5.437,-2.148zM29.129,27.395c0,0 1.941,-1.383 2.458,-1.902c-4.763,1.011 -15.638,1.147 -15.638,0.269c0,-0.809 3.507,-1.638 3.507,-1.638c0,0 -7.773,-0.112 -7.773,2.181c0,2.39 10.175,2.561 17.446,1.09z"></path><path d="M27.935,29.571c-4.509,1.499 -12.814,1.02 -10.354,-0.993c-1.198,0 -2.974,0.963 -2.974,1.889c0,1.857 8.982,3.291 15.63,0.572z"></path><path d="M18.686,32.739c-1.636,0 -2.695,1.054 -2.695,1.822c0,2.391 9.76,2.632 13.627,0.205l-2.458,-1.632c-2.889,1.27 -10.146,1.445 -8.474,-0.395z"></path><path d="M36.281,36.632c0,-0.936 -1.055,-1.377 -1.433,-1.588c2.228,5.373 -22.317,4.956 -22.317,1.784c0,-0.721 1.807,-1.427 3.477,-1.093l-1.42,-0.839c-3.328,-0.522 -5.588,0.941 -5.588,2.121c0,5.503 27.281,5.238 27.281,-0.385z"></path><path d="M39,38.604c-4.146,4.095 -14.659,5.587 -25.231,3.057c10.572,4.503 25.181,1.967 25.231,-3.057z"></path></g></g></g><g fill="#ff0000" fill-rule="nonzero" stroke="none" stroke-width="1" stroke-linecap="butt" stroke-linejoin="miter" stroke-miterlimit="10" stroke-dasharray="" stroke-dashoffset="0" font-family="none" font-weight="none" font-size="none" text-anchor="none" style="mix-blend-mode: normal"><g><path d="M173.82333,175.82667v-20.35h5.84v21.85c0,1.13333 -0.12667,2.21333 -0.38,3.24c-0.25333,1.02 -0.67333,1.92333 -1.26,2.71c-0.58,0.78 -1.32667,1.40333 -2.24,1.87c-0.90667,0.47333 -2.01667,0.71 -3.33,0.71v0c-0.82,0 -1.71333,-0.08667 -2.68,-0.26c-0.96667,-0.16667 -1.80667,-0.40667 -2.52,-0.72v0l1.28,-4.78c0.74,0.36667 1.58,0.55 2.52,0.55v0c1.19333,0 1.95333,-0.44 2.28,-1.32c0.32667,-0.88 0.49,-2.04667 0.49,-3.5zM186.11333,169.38667l-1.33,-4.14c1.14,-0.51333 2.49333,-0.92 4.06,-1.22c1.56,-0.29333 3.19333,-0.44 4.9,-0.44v0c1.48,0 2.72,0.17667 3.72,0.53c0.99333,0.35333 1.78,0.85667 2.36,1.51c0.58667,0.66 1,1.44333 1.24,2.35c0.24,0.91333 0.36,1.93667 0.36,3.07v0c0,1.25333 -0.04,2.51333 -0.12,3.78c-0.08667,1.26667 -0.13667,2.51 -0.15,3.73c-0.01333,1.22667 0.02,2.41667 0.1,3.57c0.08667,1.14667 0.3,2.23333 0.64,3.26v0h-4.52l-0.89,-2.94h-0.22c-0.56667,0.88 -1.35667,1.64 -2.37,2.28c-1.00667,0.64 -2.30667,0.96 -3.9,0.96v0c-0.99333,0 -1.89,-0.15 -2.69,-0.45c-0.79333,-0.3 -1.47667,-0.72667 -2.05,-1.28c-0.56667,-0.55333 -1.00667,-1.20667 -1.32,-1.96c-0.31333,-0.75333 -0.47,-1.6 -0.47,-2.54v0c0,-1.30667 0.29333,-2.41 0.88,-3.31c0.58,-0.89333 1.41667,-1.61667 2.51,-2.17c1.1,-0.56 2.41,-0.94667 3.93,-1.16c1.52,-0.21333 3.22,-0.27667 5.1,-0.19v0c0.2,-1.59333 0.08667,-2.73667 -0.34,-3.43c-0.42667,-0.7 -1.38,-1.05 -2.86,-1.05v0c-1.11333,0 -2.28667,0.11333 -3.52,0.34c-1.24,0.22667 -2.25667,0.52667 -3.05,0.9zM191.82333,181.11667v0c1.11333,0 1.99667,-0.24667 2.65,-0.74c0.65333,-0.5 1.13667,-1.03333 1.45,-1.6v0v-2.78c-0.88,-0.08667 -1.72667,-0.1 -2.54,-0.04c-0.80667,0.06 -1.52333,0.18667 -2.15,0.38c-0.62667,0.2 -1.12667,0.48667 -1.5,0.86c-0.36667,0.36667 -0.55,0.83667 -0.55,1.41v0c0,0.79333 0.23333,1.41 0.7,1.85c0.47333,0.44 1.12,0.66 1.94,0.66zM209.49333,164.00667l3.97,11.18l0.72,3.29h0.22l0.59,-3.37l3.63,-11.1h5.97l-8.91,21.55h-3.38l-9.25,-21.55zM227.62333,169.38667l-1.32,-4.14c1.14,-0.51333 2.49,-0.92 4.05,-1.22c1.56667,-0.29333 3.20333,-0.44 4.91,-0.44v0c1.48,0 2.71667,0.17667 3.71,0.53c0.99333,0.35333 1.78333,0.85667 2.37,1.51c0.58,0.66 0.99333,1.44333 1.24,2.35c0.24,0.91333 0.36,1.93667 0.36,3.07v0c0,1.25333 -0.04333,2.51333 -0.13,3.78c-0.08667,1.26667 -0.13667,2.51 -0.15,3.73c-0.01333,1.22667 0.02333,2.41667 0.11,3.57c0.08667,1.14667 0.3,2.23333 0.64,3.26v0h-4.52l-0.9,-2.94h-0.21c-0.57333,0.88 -1.36333,1.64 -2.37,2.28c-1.01333,0.64 -2.31667,0.96 -3.91,0.96v0c-0.99333,0 -1.88667,-0.15 -2.68,-0.45c-0.8,-0.3 -1.48333,-0.72667 -2.05,-1.28c-0.56667,-0.55333 -1.00667,-1.20667 -1.32,-1.96c-0.31333,-0.75333 -0.47,-1.6 -0.47,-2.54v0c0,-1.30667 0.29,-2.41 0.87,-3.31c0.58667,-0.89333 1.42667,-1.61667 2.52,-2.17c1.09333,-0.56 2.4,-0.94667 3.92,-1.16c1.52667,-0.21333 3.22667,-0.27667 5.1,-0.19v0c0.2,-1.59333 0.08667,-2.73667 -0.34,-3.43c-0.42667,-0.7 -1.38,-1.05 -2.86,-1.05v0c-1.10667,0 -2.28,0.11333 -3.52,0.34c-1.23333,0.22667 -2.25,0.52667 -3.05,0.9zM233.34333,181.11667v0c1.10667,0 1.98667,-0.24667 2.64,-0.74c0.66,-0.5 1.14667,-1.03333 1.46,-1.6v0v-2.78c-0.88667,-0.08667 -1.73333,-0.1 -2.54,-0.04c-0.81333,0.06 -1.53333,0.18667 -2.16,0.38c-0.62667,0.2 -1.12333,0.48667 -1.49,0.86c-0.37333,0.36667 -0.56,0.83667 -0.56,1.41v0c0,0.79333 0.23667,1.41 0.71,1.85c0.46667,0.44 1.11333,0.66 1.94,0.66z"></path></g></g></svg>