<svg xmlns="http://www.w3.org/2000/svg" xmlns:xlink="http://www.w3.org/1999/xlink" viewBox="0,0,256,256" width="500px" height="500px"><g transform="translate(40.96,40.96) scale(0.68,0.68)"><g fill="none" fill-rule="nonzero" stroke="none" stroke-width="1" stroke-linecap="butt" stroke-linejoin="miter" stroke-miterlimit="10" stroke-dasharray="" stroke-dashoffset="0" font-family="none" font-weight="none" font-size="none" text-anchor="none" style="mix-blend-mode: normal"><g transform="translate(-0.01572,-35.16972) scale(5.33333,5.33333)"><path d="M15.2,33.5c-0.5,0.3 -8.2,5.2 -8.2,5.5c0,0.4 0,0.4 0,0.4l1.4,3.6h31.2c0,0 1.5,-4.8 1.4,-6c0,-0.6 -5,-3.9 -5,-3.9c0,0 3.9,-3.9 4,-12.4c0,-0.8 0,-1.6 -0.1,-2.4c-0.7,-9.6 -6.8,-13 -13.2,-13.3c-6.5,-0.2 -10.1,2.8 -10.1,2.8c0,0 -4.1,1.4 -4.5,4.7c0,0 -3.2,0.6 -1.5,7.1c-1.3,1 -1.6,2.4 -1.6,3.4c0,1.3 0.4,2.8 1.2,3.7c1.7,1.8 3.1,1.4 3.1,1.4c0,0 0.6,3.2 1.9,5.4z" fill="#ffe0b2"></path><path d="M36.8,36.9c-0.2,-1.3 -0.8,-1.9 -2.1,-1.9h-0.1h-0.1c-0.4,0.1 -1,0.3 -2.7,1.5l-1,0.7c-0.2,-0.1 -0.5,-0.2 -0.8,-0.2c-0.5,0 -0.9,0.2 -1.3,0.5l-1,-0.5l-1.7,-0.9c-0.9,-0.4 -1.8,-0.7 -2.5,-0.7c-0.5,0 -0.9,0.1 -1.3,0.3c-0.5,0.4 -0.7,1 -0.6,1.8c0,0.4 0.1,0.9 0.1,1.3c0.2,2.1 0.3,3.6 2.3,3.7c0.1,0 0.2,0 0.3,0c1.1,0 2.4,-0.4 3.6,-1.3l0.9,-0.6c0.3,0.2 0.7,0.4 1.1,0.4c0.5,0 0.9,-0.2 1.2,-0.4l1.4,0.3c0.6,0.1 1.1,0.2 1.6,0.2h0.4c0.5,0 1,0 1.5,-0.3c0.6,-0.3 0.9,-1 0.9,-2.1c0,-0.5 -0.1,-1 -0.1,-1.4z" fill="#f44336"></path><path d="M21.7,38.9c0,-0.4 -0.1,-0.8 -0.1,-1.3c-0.1,-0.6 0,-1 0.2,-1.4c-5,-0.1 -6.6,-2.7 -6.6,-2.7c0,0 -0.3,1.6 1.1,3.4c2.1,2.5 5.3,2.8 5.3,2.8h0.2c0,-0.2 0,-0.5 -0.1,-0.8z" fill="#ffffff"></path><path d="M22.9,43l-0.7,-1.4c-0.1,-0.3 -0.2,-0.6 -0.3,-1.1l-0.1,-0.7l-0.7,-0.1c-0.9,-0.2 -3.1,-0.8 -4.7,-2.7c-0.5,-0.6 -0.8,-1.3 -1,-2l-0.4,-1.3l-1.1,0.7c-2,1.3 -5.3,3.4 -6.4,4.3l-0.6,0.5l1.5,3.8h14.5z" fill="#546e7a"></path><path d="M12.2,43h10.7l-0.7,-1.4c-0.1,-0.3 -0.2,-0.6 -0.3,-1.1l-0.1,-0.7l-0.7,-0.1c-0.9,-0.2 -3.1,-0.8 -4.7,-2.7c-0.1,-0.1 -0.2,-0.3 -0.3,-0.4l-5.1,3.4z" fill="#455a64"></path><path d="M40.7,36.5c-0.6,-0.6 -2.4,-1.9 -3.1,-2.4l-0.7,-0.5c-0.2,0.2 -0.6,0.7 -1.3,1.2l0.7,0.7c0.3,0.3 0.5,0.8 0.6,1.3v0.3c0.1,0.4 0.1,0.9 0.1,1.4c0,1.7 -0.6,2 -0.9,2.1c-0.2,0.1 -0.5,0.2 -0.8,0.2l0.1,2h4.1l0.2,-0.7c0.5,-1.6 1.1,-3.9 1.2,-4.9v-0.5z" fill="#546e7a"></path><path d="M39.6,43l0.2,-0.7c0.3,-0.8 0.5,-1.9 0.8,-2.8l-3.7,-2c0,0.3 0.1,0.7 0.1,1.1c0,1.7 -0.6,2 -0.9,2.1c-0.2,0.1 -0.5,0.2 -0.8,0.2l0.1,2l4.2,0.1z" fill="#455a64"></path><path d="M10.3,19.8c0,0 0.1,-0.1 0,0v0l0.1,-0.1c0.5,-0.4 1.2,-0.7 1.8,-0.7c0.6,0 0.9,0.2 1.2,0.3c1.3,0.7 1.6,2 1.7,2.9v0v0.1v0.1c0.6,-0.2 1.2,-0.4 1.4,-0.5c0,-0.1 0,-0.3 -0.1,-0.6c-0.1,-0.4 -0.2,-0.9 -0.4,-1.4c-0.4,-1.1 -0.3,-2.5 0.3,-4.3l0.1,-0.2c0.1,-0.4 0.3,-0.8 0.3,-1.1c0,-0.3 0.1,-0.6 0.1,-0.7c0,-0.3 -0.1,-0.5 -0.2,-0.8l-0.2,-0.5l0.3,-0.5c0.9,-1.5 4.2,-6.5 10.9,-6.5c0.2,0 0.4,0 0.7,0h-0.2c-0.4,-0.2 -0.9,-0.3 -1.4,-0.3c-0.2,0 -0.5,0 -0.7,0v0c-5.4,0 -8.7,2.3 -9.3,2.7l-0.1,0.1l-0.1,0.1c-0.6,0.2 -3.7,1.5 -4.3,4.2l-0.2,0.3l-0.4,0.2c-0.4,0.2 -0.7,0.5 -0.9,0.9c-0.7,1.2 -0.8,3 -0.3,5.5l0.1,0.5l-0.4,0.5l-0.1,0.1c0.1,-0.1 0.2,-0.2 0.3,-0.3z" fill="#616161"></path><path d="M28,41h6v2h-6zM14.2,22.4c-0.1,-0.9 -0.4,-1.7 -1.1,-2.1c-0.3,-0.1 -0.5,-0.2 -0.8,-0.2c-0.5,0 -1.1,0.2 -1.6,0.9l-0.7,-2c0.9,-0.5 1.7,-0.8 2.5,-0.8c0.5,0 1,0.1 1.5,0.3c0.4,0.2 0.8,0.5 1.1,0.8c-0.2,-1.4 0.1,-2.9 0.5,-4.1c0.2,-0.5 0.3,-1 0.4,-1.3c0.1,-0.6 0,-0.7 -0.2,-1c-1.9,0.2 -3.5,0.7 -3.5,0.7l-0.5,-1.9c0.1,0 2.1,-0.6 4.4,-0.8l0.7,-0.1l0.3,0.6c0,0 0.1,0.1 0.1,0.2c0.3,0.3 0.7,0.9 0.8,1.9c0,0.2 0,0.6 -0.1,0.9c-0.1,0.5 -0.3,0.9 -0.4,1.5c-0.4,1.2 -0.7,2.6 -0.3,3.6c0.2,0.6 0.3,1.2 0.4,1.6c0.1,0.4 0.2,1.3 -0.2,1.6c-0.4,0.3 -2.7,1 -2.7,1c0,0 -0.5,-0.4 -0.6,-1.3z" fill="#263238"></path><path d="M17.5,12.6l-1.8,-0.8c0,-0.1 3.7,-8.2 13,-7.6l-0.1,2c-8,-0.4 -11.1,6.4 -11.1,6.4z" fill="#263238"></path><path d="M22,36.2c-5.1,0 -6.8,-2.7 -6.8,-2.7c0,0 -0.3,1.6 1.1,3.4c2.1,2.5 5.3,2.8 5.3,2.8" fill="#ffffff"></path><path d="M21.5,40.7c-0.1,0 -3.6,-0.4 -5.9,-3.2c-1.7,-2.2 -1.4,-4 -1.3,-4.2l0.5,-2.6l1.4,2.3c0.1,0.1 1.5,2.2 5.9,2.2v2c-2.1,0 -3.7,-0.4 -4.9,-1c0,0 0,0 0,0.1c1.8,2.1 4.5,2.4 4.6,2.4zM34.7,42c-0.1,0 -0.2,0 -0.3,0c-1.8,0 -3.5,-0.6 -3.6,-0.6l0.7,-1.9c0,0 1.4,0.5 2.8,0.5h0.1c0.5,0 1,0 1.3,-0.1c0.3,-0.2 0.3,-0.9 0.3,-1.3c0,-0.4 -0.1,-0.9 -0.1,-1.3v-0.3c-0.1,-0.8 -0.4,-1.1 -1.2,-1.1c-0.6,0.1 -2.5,1.5 -3.2,2l-0.5,0.4l-1.2,-1.6l0.4,-0.3c1.9,-1.4 3.4,-2.4 4.4,-2.4c1.8,0 2.9,1 3.2,2.8v0.3c0.1,0.4 0.1,1 0.2,1.5c0,1.5 -0.4,2.6 -1.4,3c-0.7,0.4 -1.3,0.4 -1.9,0.4z" fill="#263238"></path><path d="M24.3,43.6c-0.1,0 -0.2,0 -0.3,0c-2.9,-0.2 -3.1,-2.5 -3.2,-4.6c0,-0.4 -0.1,-0.8 -0.1,-1.2c-0.2,-1.6 0.5,-2.4 1,-2.8c1.3,-0.9 3.3,-0.5 4.8,0.2l3,1.6l-0.9,1.8l-3,-1.6c-1.2,-0.6 -2.4,-0.7 -2.7,-0.4c-0.2,0.2 -0.2,0.6 -0.2,0.9c0.1,0.4 0.1,0.9 0.1,1.3c0.2,2.4 0.4,2.7 1.4,2.8c2.1,0.2 4.2,-1.8 4.2,-1.9l1.4,1.4c-0.2,0.2 -2.6,2.5 -5.5,2.5zM21,15.4c0,0 -0.2,0.6 -0.6,0.6c-0.2,0 -0.4,-0.4 -0.4,-0.8c0,-1.2 0.8,-2.7 1.6,-3.4c0.6,-0.5 1.4,-0.8 2.3,-0.8c0.4,0 0.9,0 1.3,0.2c0.5,0.2 0.8,0.6 0.8,1.4c0,0 0,0.4 -1.3,0.4c-0.8,0 -1.8,0.1 -2.2,0.5c-0.4,0.4 -1,0.8 -1.5,1.9zM26.4,21c-0.5,0 -1.1,-0.1 -1.6,-0.2c-0.6,-0.1 -0.9,-0.7 -0.7,-1.2l0.2,-0.3c0.1,-0.2 0.3,-0.3 0.5,-0.3c0.1,0 0.2,0 0.3,0c0.8,0.2 2,0.2 2.4,0.2c-0.5,-1.9 -0.4,-3.3 -0.1,-3.3c0.3,0 1.1,2.3 1.5,2.8c0.4,0.5 0.3,1.1 -0.1,1.5c-0.7,0.6 -1.5,0.8 -2.4,0.8zM36.4,21c-0.2,0 -0.3,0 -0.5,0c-0.6,-0.1 -0.9,-0.5 -0.9,-1.1c0,0 0.1,-0.9 0.6,-0.9c0.4,0 0.9,0.2 1.1,0.2c-0.2,-1.2 -0.5,-3.2 -0.2,-3.2c0.3,0 1,2.4 2.4,3.3c0.4,0.3 0.4,0.9 -0.2,1.3c-0.8,0.3 -1.5,0.4 -2.3,0.4zM38.3,14.5c-0.2,-0.8 -1.1,-1.5 -2.1,-1.8c-1.3,-0.3 -2.2,0.3 -2.2,0.3c0,-0.9 0.7,-1.6 1,-1.7c0.4,-0.2 0.6,-0.3 1,-0.3c2.1,0 2.9,1.3 3.6,2.6z" fill="#263238"></path><path d="M31.9,27c-0.1,0 -0.3,0 -0.4,0v0c-0.7,0 -1.3,-0.2 -1.7,-0.7c-0.8,-0.9 -0.9,-2.1 -0.6,-2.3c0.3,-0.2 0.5,0.5 1.5,0.8c0,0 0.7,0.1 0.9,0.1c0.2,0 0.3,0 0.5,0c1.3,0 2.4,-0.3 2.8,-0.6c0.1,-0.1 0.1,-0.3 0.1,-0.3c0,0 0,-0.3 -1.3,-1.5c-1.3,-1.2 -1.7,-2.7 -1.7,-4c0,-1.5 0.2,-2.5 0.4,-2.5c0.3,0 0.6,3.2 2.7,5c1.5,1.3 1.9,2.2 1.9,3.1c0,0.9 -0.5,1.4 -0.8,1.7c-1.1,1 -2.9,1.2 -4.3,1.2zM31.4,30c-3.1,-0.1 -4.7,-2 -4.7,-2c0,0 3.5,0.3 5.8,0.3v1.7zM33.6,30v-0.9v-0.9c0.2,-0.1 1.8,0.1 3.6,-0.6c-0.4,2.1 -3.5,2.4 -3.6,2.4zM29.1,33c-2.2,0 -3.3,-0.6 -4.1,-3.2c0,0 -0.1,-0.2 0.2,-0.3c0.3,-0.1 0.4,0.1 0.4,0.1c0.4,1.1 2.1,1.4 4.2,1.4c0.1,0 0.2,0 0.3,0c1,0 3,0 3,0c0,0 -0.4,2 -2.5,2c-0.3,0 -1.3,0 -1.5,0z" fill="#263238"></path><path d="M29,37c-3.2,0 -5.7,-1 -8.4,-3.9c-1.5,-1.6 -1.5,-3.7 -1.3,-3.9c0.2,-0.2 0.5,1.2 1.7,2.5c2.4,2.6 5.8,3.4 8.7,3.2c3.8,-0.3 5.4,-2.5 5.7,-2.7l1.7,1.2c-0.1,0.1 -2.4,3.1 -7.2,3.5c-0.4,0.1 -0.6,0.1 -0.9,0.1zM13.4,29l-0.1,-1l-0.1,-1c0,0 0.2,-0.1 0.6,-0.4c0.3,-0.2 0.6,-0.2 0.9,0l0.5,0.4c0.3,0.3 0.3,0.8 0,1.1c-0.9,0.8 -1.7,0.9 -1.8,0.9zM13,23l1.6,0.6c-0.1,-0.4 -0.6,-2.2 -2,-2.6c-0.4,-0.1 -1.1,0.2 -1.2,0.9c0,0 0,0.2 0,0.3v0.1c0.1,1.7 1.6,2.7 1.6,2.7z" fill="#263238"></path><path d="M30,42c-1.7,0 -3,-1.3 -3,-3c0,-1.7 1.3,-3 3,-3c1.7,0 3,1.3 3,3c0,1.7 -1.3,3 -3,3zM30,38c-0.5,0 -1,0.4 -1,1c0,0.6 0.4,1 1,1c0.6,0 1,-0.4 1,-1c0,-0.6 -0.4,-1 -1,-1z" fill="#263238"></path><path d="M39.6,44h-31.2c-0.4,0 -0.8,-0.2 -0.9,-0.6l-1.4,-3.5c-0.1,-0.3 -0.1,-0.4 -0.1,-0.6v-0.4c0.1,-1 5.7,-4.5 7.9,-5.8c-0.7,-1.5 -1.2,-3.1 -1.4,-4.1c-0.8,-0.1 -1.8,-0.5 -3,-1.7c-1.1,-1.1 -1.5,-3 -1.5,-4.3c0,-0.9 0.2,-2.4 1.4,-3.7c-0.6,-2.7 -0.5,-4.8 0.4,-6.2c0.4,-0.7 0.9,-1 1.3,-1.3c0.8,-3.1 4.1,-4.5 4.9,-4.9c0.8,-0.6 4.5,-3.1 10.7,-2.9c8.4,0.3 13.6,5.5 14.2,14.2c0.1,0.8 0.1,1.6 0.1,2.4c0,6.5 -2.3,10.5 -3.5,12.1c4.5,3.1 4.5,3.6 4.5,4.1c0.1,1.3 -1.1,5.2 -1.5,6.4c-0.1,0.5 -0.5,0.8 -0.9,0.8zM9.1,42h29.7c0.6,-1.9 1.1,-3.9 1.2,-4.7c-0.6,-0.6 -2.7,-2.2 -4.6,-3.4c-0.2,-0.2 -0.4,-0.4 -0.4,-0.7c0,-0.3 0.1,-0.6 0.3,-0.8c0,0 3.6,-3.7 3.7,-11.7c0,-0.7 0,-1.5 -0.1,-2.3c-0.7,-10.4 -8,-12.2 -12.3,-12.4c-6,-0.2 -9.4,2.5 -9.5,2.6c-0.1,0.1 -0.2,0.1 -0.3,0.2c0,0 -3.5,1.2 -3.8,3.9c-0.1,0.4 -0.4,0.8 -0.8,0.9c-0.7,0.2 -1.8,1.7 -0.7,5.9c0.1,0.4 0,0.8 -0.3,1c-1,0.8 -1.1,2 -1.1,2.6c0,1.2 0.4,2.4 1,3c1.2,1.3 2.1,1.1 2.1,1.1c0.3,-0.1 0.6,0 0.8,0.1c0.2,0.2 0.4,0.4 0.4,0.7c0,0 0.5,3.1 1.8,5.1c0.1,0.2 0.2,0.5 0.1,0.8c-0.1,0.3 -0.2,0.5 -0.5,0.6c-0.7,0.4 -6.3,4 -7.7,5zM40.1,37.4v0z" fill="#263238"></path></g></g><g fill="#4f4f4f" fill-rule="nonzero" stroke="none" stroke-width="1" stroke-linecap="butt" stroke-linejoin="miter" stroke-miterlimit="10" stroke-dasharray="" stroke-dashoffset="0" font-family="none" font-weight="none" font-size="none" text-anchor="none" style="mix-blend-mode: normal"><g><path d="M34.665,209.28v-2.03h16.43v2.03c-0.57333,0.35333 -1.21333,0.67333 -1.92,0.96c-0.71333,0.28 -1.42667,0.47333 -2.14,0.58v0v27.31c0,2.91333 -0.43333,5.30333 -1.3,7.17c-0.87333,1.86667 -1.90667,3.34333 -3.1,4.43c-1.18667,1.08667 -2.40333,1.87667 -3.65,2.37c-1.24667,0.5 -2.26,0.84 -3.04,1.02v0l-1.01,-1.39c0.53333,-0.42667 1.04667,-0.97 1.54,-1.63c0.5,-0.65333 0.93667,-1.49667 1.31,-2.53c0.37333,-1.03333 0.67667,-2.28667 0.91,-3.76c0.22667,-1.47333 0.34,-3.26 0.34,-5.36v0v-27.63c-0.78,-0.17333 -1.55333,-0.37667 -2.32,-0.61c-0.76,-0.23333 -1.44333,-0.54333 -2.05,-0.93zM77.595,239.04l1.02,1.06c-0.28667,0.60667 -0.74,1.22 -1.36,1.84c-0.62667,0.62667 -1.39333,1.18 -2.3,1.66c-0.90667,0.48 -1.95333,0.87 -3.14,1.17c-1.19333,0.3 -2.48333,0.45 -3.87,0.45v0c-2.20667,0 -4.16333,-0.32667 -5.87,-0.98c-1.70667,-0.66 -3.12667,-1.60333 -4.26,-2.83c-1.14,-1.22667 -2.00333,-2.69333 -2.59,-4.4c-0.58667,-1.70667 -0.88,-3.62667 -0.88,-5.76v0c0,-4.55333 1.19,-8.02 3.57,-10.4c2.38667,-2.38 5.69333,-3.57 9.92,-3.57v0c1.81333,0 3.51333,0.24667 5.1,0.74c1.58,0.5 2.89333,1.32 3.94,2.46c1.05333,1.13333 1.78333,2.62667 2.19,4.48c0.40667,1.84667 0.38,4.10333 -0.08,6.77v0h-16.37c0.03333,2.80667 0.75333,5.04667 2.16,6.72c1.4,1.67333 3.47,2.51 6.21,2.51v0c1.17333,0 2.39,-0.18 3.65,-0.54c1.26667,-0.35333 2.25333,-0.81333 2.96,-1.38zM67.625,220.32v0c-0.71333,0 -1.34333,0.12333 -1.89,0.37c-0.55333,0.24667 -1.03333,0.7 -1.44,1.36c-0.41333,0.66 -0.74333,1.55 -0.99,2.67c-0.24667,1.12 -0.42333,2.53333 -0.53,4.24v0h8.58c0.25333,-2.77333 0.09333,-4.90667 -0.48,-6.4c-0.56667,-1.49333 -1.65,-2.24 -3.25,-2.24zM115.035,242.5v2.08h-14.13v-2.08c0.46,-0.24667 0.91333,-0.46667 1.36,-0.66c0.44667,-0.2 0.97,-0.40667 1.57,-0.62v0v-12.53c0,-2.24 -0.32,-3.99 -0.96,-5.25c-0.64,-1.26667 -1.77667,-1.9 -3.41,-1.9v0c-1.35333,0 -2.51667,0.43667 -3.49,1.31c-0.98,0.87333 -1.72,2.05667 -2.22,3.55v0v14.82c0.57333,0.14667 1.08,0.31667 1.52,0.51c0.44667,0.19333 0.92,0.45 1.42,0.77v0v2.08h-14.14v-2.08c0.89333,-0.46 2.06667,-0.88667 3.52,-1.28v0v-19.52l-3.52,-0.42v-2.08c0.46667,-0.21333 1.07333,-0.42 1.82,-0.62c0.74667,-0.19333 1.55333,-0.38 2.42,-0.56c0.87333,-0.17333 1.76333,-0.32333 2.67,-0.45c0.90667,-0.12667 1.73333,-0.22333 2.48,-0.29v0h1.81v5.49h0.06c0.74667,-1.49333 1.86667,-2.78333 3.36,-3.87c1.49333,-1.08 3.30667,-1.62 5.44,-1.62v0c1.38667,0 2.63,0.16667 3.73,0.5c1.1,0.34 2.03333,0.93667 2.8,1.79c0.76667,0.85333 1.35333,2 1.76,3.44c0.40667,1.44 0.61,3.26333 0.61,5.47v0v12.74c1.42667,0.25333 2.6,0.68 3.52,1.28zM132.855,220v-2.08h12.48v2.08c-0.68,0.28 -1.31333,0.52667 -1.9,0.74c-0.58667,0.21333 -1.23333,0.39333 -1.94,0.54v0c-0.53333,0.70667 -1.11333,1.40667 -1.74,2.1c-0.62,0.69333 -1.24,1.36 -1.86,2c-0.62667,0.64 -1.22333,1.25333 -1.79,1.84c-0.56667,0.58667 -1.08333,1.11333 -1.55,1.58v0c0.53333,0.70667 1.15667,1.56 1.87,2.56c0.71333,0.99333 1.47667,2.05 2.29,3.17c0.82,1.12 1.68333,2.25667 2.59,3.41c0.90667,1.16 1.82333,2.25333 2.75,3.28v0l2.72,1.28v2.08h-9.02l-1.44,-1.28c-0.81333,-1.1 -1.53333,-2.13 -2.16,-3.09c-0.62,-0.96 -1.18,-1.88333 -1.68,-2.77c-0.49333,-0.89333 -0.97333,-1.75667 -1.44,-2.59c-0.46,-0.83333 -0.92,-1.66 -1.38,-2.48v0l-1.76,-0.53v9.38c0.6,0.10667 1.15,0.26667 1.65,0.48c0.5,0.21333 1.03333,0.48 1.6,0.8v0v2.08h-14.45v-2.08c1.17333,-0.56667 2.34667,-0.99333 3.52,-1.28v0v-32.32l-4.06,-0.42v-2.08c0.5,-0.21333 1.17667,-0.42667 2.03,-0.64c0.85333,-0.21333 1.76,-0.4 2.72,-0.56c0.96,-0.16 1.90333,-0.30333 2.83,-0.43c0.92,-0.12667 1.7,-0.22333 2.34,-0.29v0h1.82v25.01h1.38c1.17333,-1.24667 2.26667,-2.61667 3.28,-4.11c1.01333,-1.49333 1.91333,-2.86 2.7,-4.1v0c-0.46667,-0.14667 -0.88667,-0.32667 -1.26,-0.54c-0.37333,-0.21333 -0.75333,-0.46 -1.14,-0.74zM163.145,242.5v2.08h-14.72v-2.08c0.53333,-0.28 1.08333,-0.52 1.65,-0.72c0.57333,-0.19333 1.19667,-0.38 1.87,-0.56v0v-19.52l-3.52,-0.42v-2.08c0.53333,-0.21333 1.2,-0.42667 2,-0.64c0.8,-0.21333 1.64333,-0.4 2.53,-0.56c0.89333,-0.16 1.76667,-0.30333 2.62,-0.43c0.85333,-0.12667 1.6,-0.22333 2.24,-0.29v0h1.81v23.94c0.71333,0.18 1.35333,0.36667 1.92,0.56c0.56667,0.2 1.1,0.44 1.6,0.72zM151.035,209.17v0c0,-1.24667 0.42667,-2.22333 1.28,-2.93c0.85333,-0.71333 1.95667,-1.07 3.31,-1.07v0c1.35333,0 2.45667,0.35667 3.31,1.07c0.85333,0.70667 1.28,1.68333 1.28,2.93v0c0,1.20667 -0.42667,2.16667 -1.28,2.88c-0.85333,0.71333 -1.95667,1.07 -3.31,1.07v0c-1.35333,0 -2.45667,-0.35667 -3.31,-1.07c-0.85333,-0.71333 -1.28,-1.67333 -1.28,-2.88zM198.185,242.5v2.08h-14.13v-2.08c0.46,-0.24667 0.91333,-0.46667 1.36,-0.66c0.44,-0.2 0.96333,-0.40667 1.57,-0.62v0v-12.53c0,-2.24 -0.32,-3.99 -0.96,-5.25c-0.64,-1.26667 -1.77667,-1.9 -3.41,-1.9v0c-1.35333,0 -2.52,0.43667 -3.5,1.31c-0.97333,0.87333 -1.71,2.05667 -2.21,3.55v0v14.82c0.56667,0.14667 1.07333,0.31667 1.52,0.51c0.44667,0.19333 0.91667,0.45 1.41,0.77v0v2.08h-14.13v-2.08c0.88667,-0.46 2.06,-0.88667 3.52,-1.28v0v-19.52l-3.52,-0.42v-2.08c0.46,-0.21333 1.06333,-0.42 1.81,-0.62c0.74667,-0.19333 1.55667,-0.38 2.43,-0.56c0.87333,-0.17333 1.76333,-0.32333 2.67,-0.45c0.90667,-0.12667 1.73333,-0.22333 2.48,-0.29v0h1.81v5.49h0.05c0.74667,-1.49333 1.86667,-2.78333 3.36,-3.87c1.49333,-1.08 3.30667,-1.62 5.44,-1.62v0c1.38667,0 2.63333,0.16667 3.74,0.5c1.1,0.34 2.03333,0.93667 2.8,1.79c0.76,0.85333 1.34667,2 1.76,3.44c0.40667,1.44 0.61,3.26333 0.61,5.47v0v12.74c1.42,0.25333 2.59333,0.68 3.52,1.28zM214.185,238.77v0c0,-0.92667 -0.33,-1.72667 -0.99,-2.4c-0.65333,-0.67333 -1.47,-1.29667 -2.45,-1.87c-0.98,-0.56667 -2.04667,-1.13333 -3.2,-1.7c-1.15333,-0.57333 -2.22,-1.24 -3.2,-2c-0.98,-0.76667 -1.79667,-1.66667 -2.45,-2.7c-0.66,-1.02667 -0.99,-2.28667 -0.99,-3.78v0c0,-1.06667 0.25,-2.03667 0.75,-2.91c0.49333,-0.87333 1.16667,-1.61 2.02,-2.21c0.85333,-0.60667 1.87667,-1.08 3.07,-1.42c1.19333,-0.33333 2.48333,-0.5 3.87,-0.5v0c1.92,0 3.70667,0.15 5.36,0.45c1.65333,0.3 3.1,0.71667 4.34,1.25v0c-0.14,1.14 -0.42333,2.36 -0.85,3.66c-0.42667,1.29333 -0.83667,2.47333 -1.23,3.54v0h-1.81l-2.24,-5.44c-0.42667,-0.17333 -0.87,-0.28667 -1.33,-0.34c-0.46667,-0.05333 -0.98333,-0.08 -1.55,-0.08v0c-1.06667,0 -1.87667,0.31 -2.43,0.93c-0.54667,0.62 -0.82,1.32333 -0.82,2.11v0c0,0.88667 0.32667,1.66 0.98,2.32c0.66,0.65333 1.48,1.26667 2.46,1.84c0.97333,0.56667 2.04,1.13333 3.2,1.7c1.15333,0.57333 2.22,1.22333 3.2,1.95c0.97333,0.72667 1.79,1.59 2.45,2.59c0.66,0.99333 0.99,2.18333 0.99,3.57v0c0,2.45333 -0.99667,4.38333 -2.99,5.79c-1.99333,1.4 -4.66,2.1 -8,2.1v0c-1.70667,0 -3.46667,-0.17667 -5.28,-0.53c-1.81333,-0.35333 -3.37667,-0.85 -4.69,-1.49v0c0.06667,-1.28 0.36667,-2.58 0.9,-3.9c0.53333,-1.31333 1.10333,-2.48667 1.71,-3.52v0h1.81l2.62,5.82c0.38667,0.28 0.82,0.44667 1.3,0.5c0.48,0.05333 0.93333,0.08 1.36,0.08v0c1.03333,0 1.97667,-0.3 2.83,-0.9c0.85333,-0.60667 1.28,-1.44333 1.28,-2.51z"></path></g></g></g></svg>