<svg xmlns="http://www.w3.org/2000/svg"  viewBox="0 0 24 24" width="500px" height="500px"><polygon fill="#C70B00" points="6.366,11.484 6.366,11.483 6.366,11.483"/><path fill="#C70B00" d="M5.668,12.853c-0.079,0.239-0.133,0.479-0.182,0.711l0.491,0.413c0.024-0.252,0.067-0.504,0.127-0.756	L5.668,12.853z"/><path fill="#C70B00" d="M5.395,15.207c0.012,0.343,0.042,0.621,0.073,0.815l0.727,0.278c-0.055-0.252-0.109-0.537-0.145-0.841	L5.395,15.207L5.395,15.207z"/><path fill="#C70B00" d="M2.831,10.493l-0.43-0.401c-0.158,0.162-0.309,0.323-0.448,0.485l0.467,0.426	c0.127-0.175,0.267-0.349,0.412-0.511L2.831,10.493z"/><path fill="#C70B00" d="M7.015,11.49l-0.273-0.44c-0.139,0.136-0.267,0.284-0.376,0.433l0.291,0.465	C6.76,11.786,6.881,11.637,7.015,11.49z"/><path fill="#C70B00" d="M7.645,7.894L7.524,7.5c-0.188,0-0.382,0.013-0.582,0.039L7.057,7.92c0.176-0.019,0.352-0.026,0.527-0.026	H7.645z"/><path fill="#C70B00" d="M4.849,8.127C4.697,8.211,4.54,8.302,4.376,8.404l0.279,0.453c0.158-0.103,0.309-0.2,0.467-0.284	L4.849,8.127z"/><path fill="#C70B00" d="M1,13.383l-0.697-0.272C0.188,13.389,0.061,13.713,0,13.887l0.697,0.271C0.776,13.938,0.903,13.622,1,13.383	z"/><polygon fill="#C70B00" points="5.122,8.572 5.122,8.572 5.122,8.573"/><path fill="#C70B00" d="M10.427,8.107c-0.055-0.032-0.206-0.11-0.588-0.226L9.814,8.308c0.2,0.071,0.394,0.149,0.588,0.232v0.001	L10.427,8.107z"/><polygon fill="#C70B00" points="7.875,10.275 7.875,10.275 7.875,10.274"/><path fill="#C70B00" d="M10.427,9.995c-0.206-0.045-0.406-0.071-0.6-0.084v0.001l-0.024,0.407c0.2,0.006,0.4,0.032,0.6,0.077	L10.427,9.995z"/><path fill="#C70B00" d="M8.541,10.494l-0.133-0.426c-0.206,0.064-0.382,0.136-0.533,0.207l0.139,0.446	C8.19,10.63,8.366,10.552,8.541,10.494z"/><path fill="#C70B00" d="M7.73,16.5h1.165v-1.112L9.9,16.5h1.722l-1.353-1.454v-0.001c0,0,1.062-0.096,1.062-1.557	c0-1.462-1.286-1.598-1.286-1.598H7.73V16.5L7.73,16.5z M8.893,13.047h0.934c0,0,0.261,0.104,0.261,0.524	c0,0.421-0.267,0.53-0.267,0.53H8.893V13.047L8.893,13.047z"/><polygon fill="#C70B00" points="17.605,11.922 17.605,16.499 20.484,16.499 20.484,15.317 18.829,15.317 18.829,11.922 17.605,11.922"/><polygon fill="#C70B00" points="17.101,16.499 17.101,11.922 15.871,11.922 15.871,16.499 17.101,16.499"/><path fill="#C70B00" d="M14.203,11.922h-1.182c-0.842,0-1.128,0.814-1.128,1.203V16.5h1.182v-0.808h1.109V16.5h1.145v-3.375	C15.331,12.143,14.494,11.922,14.203,11.922L14.203,11.922z M13.07,14.385v-1.119c0,0,0-0.252,0.37-0.252h0.406	c0.327,0,0.333,0.252,0.333,0.252v1.119H13.07L13.07,14.385z"/><path fill="#C70B00" d="M23.843,13.099v-1.177h-1.879c-0.485,0-1.133,0.427-1.133,1.223v0.407c0,0.795,0.642,1.202,1.133,1.202	c0.316,0.002,0.465,0.002,0.527,0.003c-0.095-0.001-0.274-0.003,0.406-0.003v0.57l-2.006,0.006V16.5h1.982	c0.406,0,1.104-0.317,1.128-1.203v-0.452c0-0.757-0.582-1.203-1.128-1.203h-0.988v-0.543H23.843L23.843,13.099z"/><path fill="#AD0A00" d="M11.22,14.211H7.73V16.5h1.165v-1.112L9.9,16.5h1.722l-1.353-1.454v-0.001	C10.27,15.045,10.948,14.983,11.22,14.211L11.22,14.211z"/><polygon fill="#AD0A00" points="18.829,14.211 17.605,14.211 17.605,16.499 20.484,16.499 20.484,15.317 18.829,15.317 18.829,14.211"/><polygon fill="#AD0A00" points="17.101,14.211 15.871,14.211 15.871,16.499 17.101,16.499 17.101,14.211"/><polygon fill="#AD0A00" points="15.331,14.211 14.18,14.211 14.18,14.385 13.07,14.385 13.07,14.211 11.894,14.211 11.894,16.5 13.076,16.5 13.076,15.692 14.186,15.692 14.186,16.5 15.331,16.5 15.331,14.211"/><path fill="#AD0A00" d="M22.457,14.757c0.011,0,0.023,0,0.034,0C22.481,14.757,22.47,14.757,22.457,14.757L22.457,14.757z M23.837,14.211h-2.826c0.226,0.36,0.623,0.543,0.952,0.543c0.27,0.002,0.417,0.002,0.493,0.003	c-0.091-0.001-0.164-0.003,0.44-0.003v0.57l-2.006,0.006V16.5h1.982c0.406,0,1.104-0.317,1.128-1.203v-0.452	C24,14.599,23.939,14.386,23.837,14.211L23.837,14.211z"/><path fill="#C70B00" d="M0.468,16.183c-0.033,0.199-0.045,0.315-0.045,0.315l0.001,0.001h4.789c0,0-0.915-4.454,2.115-6.259	c0.662-0.343,2.765-1.623,6.208,1.093c0.11-0.097,0.213-0.176,0.213-0.176s-3.153-3.355-6.663-2.981	c-1.771,0.168-3.94,1.882-5.213,4.145C0.905,14.04,0.573,15.553,0.468,16.183L0.468,16.183z"/><path fill="#AD0A00" d="M6.423,8.305C4.8,8.771,2.991,10.334,1.872,12.321c-0.967,1.719-1.3,3.231-1.404,3.861	c-0.033,0.199-0.045,0.315-0.045,0.315l0.001,0.001h4.789c0,0-0.715-3.477,1.21-5.532V8.305L6.423,8.305z"/></svg>